<svg width="16" height="17" viewBox="0 0 16 17" fill="none" xmlns="http://www.w3.org/2000/svg">
	<path d="M15 3.5H11C10.4 3.5 10 3.9 10 4.5C10 5.1 10.4 5.5 11 5.5H15C15.6 5.5 16 5.1 16 4.5C16 3.9 15.6 3.5 15 3.5Z" fill="rgb(193,199,205)" />
	<path d="M5 1.5C3.7 1.5 2.6 2.4 2.2 3.5C2.1 3.5 2.1 3.5 2 3.5H1C0.4 3.5 0 3.9 0 4.5C0 5.1 0.4 5.5 1 5.5H2C2.1 5.5 2.1 5.5 2.2 5.5C2.6 6.6 3.7 7.5 5 7.5C6.7 7.5 8 6.2 8 4.5C8 2.8 6.7 1.5 5 1.5Z" fill="rgb(193,199,205)" />
	<path d="M1 13.5H5C5.6 13.5 6 13.1 6 12.5C6 11.9 5.6 11.5 5 11.5H1C0.4 11.5 0 11.9 0 12.5C0 13.1 0.4 13.5 1 13.5Z" fill="rgb(193,199,205)" />
	<path d="M15 11.5H14C13.9 11.5 13.9 11.5 13.8 11.5C13.4 10.3 12.3 9.5 11 9.5C9.3 9.5 8 10.8 8 12.5C8 14.2 9.3 15.5 11 15.5C12.3 15.5 13.4 14.6 13.8 13.5C13.9 13.5 13.9 13.5 14 13.5H15C15.6 13.5 16 13.1 16 12.5C16 11.9 15.6 11.5 15 11.5Z" fill="rgb(193,199,205)" />
</svg>
