<svg width="24" height="24" viewBox="0 0 24 24" fill="none" xmlns="http://www.w3.org/2000/svg">
<g id="icon / stack" clip-path="url(#clip0_9_1193)">
<g id="Group">
<path id="Vector" d="M23.746 16.564L22.126 15.649L13.226 20.677C12.8509 20.8889 12.4273 21.0002 11.9965 21.0002C11.5657 21.0002 11.1421 20.8889 10.767 20.677L1.86701 15.648L0.247007 16.563C0.16958 16.6065 0.105125 16.6698 0.0602649 16.7464C0.0154053 16.823 -0.00823975 16.9102 -0.00823975 16.999C-0.00823975 17.0878 0.0154053 17.175 0.0602649 17.2516C0.105125 17.3282 0.16958 17.3915 0.247007 17.435L11.747 23.935C11.8221 23.9774 11.9068 23.9997 11.993 23.9997C12.0792 23.9997 12.164 23.9774 12.239 23.935L23.739 17.435C23.8164 17.3915 23.8809 17.3282 23.9258 17.2516C23.9706 17.175 23.9943 17.0878 23.9943 16.999C23.9943 16.9102 23.9706 16.823 23.9258 16.7464C23.8809 16.6698 23.8164 16.6065 23.739 16.563L23.746 16.564Z" fill="white"/>
<path id="Vector_2" d="M23.746 11.564L22.126 10.649L13.226 15.677C12.8509 15.8889 12.4273 16.0002 11.9965 16.0002C11.5657 16.0002 11.1421 15.8889 10.767 15.677L1.86701 10.648L0.247007 11.563C0.16958 11.6065 0.105125 11.6698 0.0602649 11.7464C0.0154053 11.823 -0.00823975 11.9102 -0.00823975 11.999C-0.00823975 12.0878 0.0154053 12.175 0.0602649 12.2516C0.105125 12.3282 0.16958 12.3915 0.247007 12.435L11.747 18.935C11.8221 18.9774 11.9068 18.9997 11.993 18.9997C12.0792 18.9997 12.164 18.9774 12.239 18.935L23.739 12.435C23.8164 12.3915 23.8809 12.3282 23.9258 12.2516C23.9706 12.175 23.9943 12.0878 23.9943 11.999C23.9943 11.9102 23.9706 11.823 23.9258 11.7464C23.8809 11.6698 23.8164 11.6065 23.739 11.563L23.746 11.564Z" fill="white"/>
<path id="Vector_3" d="M23.746 6.56398L12.246 0.0639848C12.1708 0.02222 12.0861 0.000305176 12 0.000305176C11.914 0.000305176 11.8293 0.02222 11.754 0.0639848L0.254026 6.56398C0.1766 6.60745 0.112144 6.67075 0.067284 6.74738C0.0224243 6.824 -0.0012207 6.91119 -0.0012207 6.99998C-0.0012207 7.08878 0.0224243 7.17597 0.067284 7.25259C0.112144 7.32922 0.1766 7.39252 0.254026 7.43598L11.754 13.936C11.8291 13.9784 11.9138 14.0007 12 14.0007C12.0862 14.0007 12.171 13.9784 12.246 13.936L23.746 7.43598C23.8235 7.39252 23.8879 7.32922 23.9328 7.25259C23.9776 7.17597 24.0013 7.08878 24.0013 6.99998C24.0013 6.91119 23.9776 6.824 23.9328 6.74738C23.8879 6.67075 23.8235 6.60745 23.746 6.56398Z" fill="white"/>
</g>
</g>
<defs>
<clipPath id="clip0_9_1193">
<rect width="24" height="24" fill="white"/>
</clipPath>
</defs>
</svg>
